<svg width="21" height="21" viewBox="0 0 21 21" fill="none" xmlns="http://www.w3.org/2000/svg">
    <path
        d="M10.8013 0.134277C9.48805 0.134277 8.18769 0.392935 6.97443 0.895482C5.76118 1.39803 4.65879 2.13462 3.7302 3.06321C1.85484 4.93857 0.80127 7.48211 0.80127 10.1343C0.80127 12.7864 1.85484 15.33 3.7302 17.2053C4.65879 18.1339 5.76118 18.8705 6.97443 19.3731C8.18769 19.8756 9.48805 20.1343 10.8013 20.1343C13.4534 20.1343 15.997 19.0807 17.8723 17.2053C19.7477 15.33 20.8013 12.7864 20.8013 10.1343C20.8013 8.82106 20.5426 7.5207 20.0401 6.30744C19.5375 5.09419 18.8009 3.9918 17.8723 3.06321C16.9438 2.13462 15.8414 1.39803 14.6281 0.895482C13.4148 0.392935 12.1145 0.134277 10.8013 0.134277ZM5.87127 16.4143C6.30127 15.5143 8.92127 14.6343 10.8013 14.6343C12.6813 14.6343 15.3013 15.5143 15.7313 16.4143C14.3713 17.4943 12.6613 18.1343 10.8013 18.1343C8.94127 18.1343 7.23127 17.4943 5.87127 16.4143ZM17.1613 14.9643C15.7313 13.2243 12.2613 12.6343 10.8013 12.6343C9.34127 12.6343 5.87127 13.2243 4.44127 14.9643C3.42127 13.6343 2.80127 11.9543 2.80127 10.1343C2.80127 5.72428 6.39127 2.13428 10.8013 2.13428C15.2113 2.13428 18.8013 5.72428 18.8013 10.1343C18.8013 11.9543 18.1813 13.6343 17.1613 14.9643ZM10.8013 4.13428C8.86127 4.13428 7.30127 5.69428 7.30127 7.63428C7.30127 9.57428 8.86127 11.1343 10.8013 11.1343C12.7413 11.1343 14.3013 9.57428 14.3013 7.63428C14.3013 5.69428 12.7413 4.13428 10.8013 4.13428ZM10.8013 9.13428C10.4034 9.13428 10.0219 8.97624 9.74061 8.69494C9.4593 8.41363 9.30127 8.0321 9.30127 7.63428C9.30127 7.23645 9.4593 6.85492 9.74061 6.57362C10.0219 6.29231 10.4034 6.13428 10.8013 6.13428C11.1991 6.13428 11.5806 6.29231 11.8619 6.57362C12.1432 6.85492 12.3013 7.23645 12.3013 7.63428C12.3013 8.0321 12.1432 8.41363 11.8619 8.69494C11.5806 8.97624 11.1991 9.13428 10.8013 9.13428Z"
        fill="#1E293B" />
</svg>