<svg width="34" height="29" viewBox="0 0 34 29" fill="none" xmlns="http://www.w3.org/2000/svg">
<path d="M5.66667 5.8H8.5V23.2H5.66667V5.8ZM9.91667 5.8H11.3333V23.2H9.91667V5.8ZM12.75 5.8H17V23.2H12.75V5.8ZM18.4167 5.8H19.8333V23.2H18.4167V5.8ZM22.6667 5.8H25.5V23.2H22.6667V5.8ZM26.9167 5.8H28.3333V23.2H26.9167V5.8ZM2.83333 2.9V8.7H0V2.9C0 2.13087 0.298511 1.39325 0.829864 0.84939C1.36122 0.305535 2.08189 0 2.83333 0H8.5V2.9H2.83333ZM31.1667 0C31.9181 0 32.6388 0.305535 33.1701 0.84939C33.7015 1.39325 34 2.13087 34 2.9V8.7H31.1667V2.9H25.5V0H31.1667ZM2.83333 20.3V26.1H8.5V29H2.83333C2.08189 29 1.36122 28.6945 0.829864 28.1506C0.298511 27.6068 0 26.8691 0 26.1V20.3H2.83333ZM31.1667 26.1V20.3H34V26.1C34 26.8691 33.7015 27.6068 33.1701 28.1506C32.6388 28.6945 31.9181 29 31.1667 29H25.5V26.1H31.1667Z" fill="#FFFEFE"/>
</svg>
