<svg width="22" height="23" viewBox="0 0 22 23" fill="none" xmlns="http://www.w3.org/2000/svg">
<path d="M11.0025 15.525C9.95277 15.525 8.94604 15.1009 8.20377 14.3461C7.4615 13.5913 7.04449 12.5675 7.04449 11.5C7.04449 10.4325 7.4615 9.40873 8.20377 8.6539C8.94604 7.89906 9.95277 7.475 11.0025 7.475C12.0522 7.475 13.059 7.89906 13.8012 8.6539C14.5435 9.40873 14.9605 10.4325 14.9605 11.5C14.9605 12.5675 14.5435 13.5913 13.8012 14.3461C13.059 15.1009 12.0522 15.525 11.0025 15.525ZM19.4048 12.6155C19.45 12.2475 19.4839 11.8795 19.4839 11.5C19.4839 11.1205 19.45 10.741 19.4048 10.35L21.7909 8.4755C22.0058 8.303 22.0623 7.9925 21.9266 7.7395L19.6649 3.7605C19.5292 3.5075 19.2238 3.404 18.975 3.5075L16.1592 4.6575C15.5712 4.209 14.9605 3.818 14.2481 3.5305L13.8296 0.483C13.7844 0.207 13.5469 0 13.2642 0H8.74078C8.45807 0 8.22059 0.207 8.17535 0.483L7.75693 3.5305C7.04449 3.818 6.43383 4.209 5.84578 4.6575L3.02994 3.5075C2.78116 3.404 2.47582 3.5075 2.34012 3.7605L0.0784042 7.7395C-0.0686074 7.9925 -0.000755755 8.303 0.214107 8.4755L2.60022 10.35C2.55498 10.741 2.52106 11.1205 2.52106 11.5C2.52106 11.8795 2.55498 12.2475 2.60022 12.6155L0.214107 14.5245C-0.000755755 14.697 -0.0686074 15.0075 0.0784042 15.2605L2.34012 19.2395C2.47582 19.4925 2.78116 19.5845 3.02994 19.4925L5.84578 18.331C6.43383 18.791 7.04449 19.182 7.75693 19.4695L8.17535 22.517C8.22059 22.793 8.45807 23 8.74078 23H13.2642C13.5469 23 13.7844 22.793 13.8296 22.517L14.2481 19.4695C14.9605 19.1705 15.5712 18.791 16.1592 18.331L18.975 19.4925C19.2238 19.5845 19.5292 19.4925 19.6649 19.2395L21.9266 15.2605C22.0623 15.0075 22.0058 14.697 21.7909 14.5245L19.4048 12.6155Z" fill="black"/>
</svg>
