<svg width="25" height="17" viewBox="0 0 25 17" fill="none" xmlns="http://www.w3.org/2000/svg">
<path d="M0 0H25V17H0V0ZM12.5 4.25C13.6051 4.25 14.6649 4.69777 15.4463 5.4948C16.2277 6.29183 16.6667 7.37283 16.6667 8.5C16.6667 9.62717 16.2277 10.7082 15.4463 11.5052C14.6649 12.3022 13.6051 12.75 12.5 12.75C11.3949 12.75 10.3351 12.3022 9.55372 11.5052C8.77232 10.7082 8.33333 9.62717 8.33333 8.5C8.33333 7.37283 8.77232 6.29183 9.55372 5.4948C10.3351 4.69777 11.3949 4.25 12.5 4.25ZM5.55556 2.83333C5.55556 3.58478 5.2629 4.30545 4.74196 4.8368C4.22103 5.36816 3.51449 5.66667 2.77778 5.66667V11.3333C3.51449 11.3333 4.22103 11.6318 4.74196 12.1632C5.2629 12.6946 5.55556 13.4152 5.55556 14.1667H19.4444C19.4444 13.4152 19.7371 12.6946 20.258 12.1632C20.779 11.6318 21.4855 11.3333 22.2222 11.3333V5.66667C21.4855 5.66667 20.779 5.36816 20.258 4.8368C19.7371 4.30545 19.4444 3.58478 19.4444 2.83333H5.55556Z" fill="#28282B"/>
</svg>
