<svg width="22" height="17" viewBox="0 0 22 17" fill="none" xmlns="http://www.w3.org/2000/svg">
<path d="M16.5 9.83C17.29 9.83 18.13 9.91 19 10.07V11.57C18.38 11.41 17.54 11.33 16.5 11.33C14.6 11.33 13.11 11.66 12 12.32V10.63C13.17 10.1 14.67 9.83 16.5 9.83ZM12 7.96C13.29 7.43 14.79 7.17 16.5 7.17C17.29 7.17 18.13 7.24 19 7.4V8.9C18.38 8.74 17.54 8.66 16.5 8.66C14.6 8.66 13.11 9 12 9.65M16.5 6C14.6 6 13.11 6.32 12 7V5.34C13.23 4.78 14.73 4.5 16.5 4.5C17.29 4.5 18.13 4.58 19 4.73V6.28C18.26 6.09 17.41 6 16.5 6ZM20 14V2.5C18.96 2.17 17.79 2 16.5 2C14.45 2 12.62 2.5 11 3.5V15C12.62 14 14.45 13.5 16.5 13.5C17.69 13.5 18.86 13.66 20 14ZM16.5 0C18.85 0 20.69 0.5 22 1.5V16.06C22 16.18 21.95 16.3 21.84 16.41C21.73 16.5 21.61 16.58 21.5 16.58C21.39 16.58 21.31 16.56 21.25 16.53C19.97 15.84 18.38 15.5 16.5 15.5C14.45 15.5 12.62 16 11 17C9.66 16 7.83 15.5 5.5 15.5C3.84 15.5 2.25 15.86 0.75 16.57C0.72 16.58 0.68 16.58 0.63 16.6C0.59 16.61 0.55 16.62 0.5 16.62C0.39 16.62 0.27 16.58 0.16 16.5C0.05 16.39 0 16.28 0 16.15V1.5C1.34 0.5 3.18 0 5.5 0C7.83 0 9.66 0.5 11 1.5C12.34 0.5 14.17 0 16.5 0Z" fill="#28282B"/>
</svg>
